# xmcd CD database file
#
# Track frame offsets:
#	150
#	14832
#	31056
#	44977
#	61345
#	75409
#	90705
#	109710
#	129957
#	145054
#	166312
#	187786
#	204021
#	221180
#	238033
#	256117
#	269473
#	286567
#	300745
#	319275
#	336486
#
# Disc length: 4663 seconds
#
# Revision: 1
# Processed by: cddbd v1.5.1PL2 Copyright (c) Steve Scherf et al.
# Submitted via: CDex 1.70beta2
#
DISCID=29123515
DTITLE=Various Artist - Best of Country Music Channel 2006 Disc Two
DYEAR=2006
DGENRE=Country
TTITLE0=Brooks and Dunn - Play Something Country
TTITLE1=Trace Adkins - Honky Tonk Badonkadonk
TTITLE2=Miranda Lambert - Kerosene
TTITLE3=Rascal Flatts - Here's To You
TTITLE4=Joe Nichols - Tequila Makes Her Clothes Fall Off
TTITLE5=Sara Evans - Cheatin'
TTITLE6=Gary Allan - Best I Ever Had
TTITLE7=Billy Currington - Must Be Doin' Somethin' Right
TTITLE8=Terri Clark - She Didn't Have Time
TTITLE9=Dierks Bentley - Come a Little Closer
TTITLE10=Brad Paisley - Alcohol
TTITLE11=Sugarland - Something More
TTITLE12=Toby Keith - As Good As I Once Was
TTITLE13=SheDaisy - God Bless the American Housewife
TTITLE14=Lonestar - You're Like Comin' Home
TTITLE15=Corb Lund - The Truck Got Stuck
TTITLE16=Lee Ann Womack - Twenty Years and Two Husbands Ago
TTITLE17=Montgomery Gentry - She Don't Tell Me To
TTITLE18=The Road Hammers - I'm a Road Hammer
TTITLE19=Jo Dee Messina - Delicious Surprise (I Believe It)
TTITLE20=Shooter Jennings - Steady At The Wheel
EXTD=YEAR: 2006
EXTT0=
EXTT1=
EXTT2=
EXTT3=
EXTT4=
EXTT5=
EXTT6=
EXTT7=
EXTT8=
EXTT9=
EXTT10=
EXTT11=
EXTT12=
EXTT13=
EXTT14=
EXTT15=
EXTT16=
EXTT17=
EXTT18=
EXTT19=
EXTT20=
PLAYORDER=
